<svg width="32" height="32" viewBox="0 0 32 32" fill="none" xmlns="http://www.w3.org/2000/svg">
<path d="M27.2 12H4.8C4.35817 12 4 12.3582 4 12.8V14.2C4 14.6418 4.35817 15 4.8 15H27.2C27.6418 15 28 14.6418 28 14.2V12.8C28 12.3582 27.6418 12 27.2 12Z" fill="black"/>
<path d="M5.75 11H5.25C5.11193 11 5 11.2239 5 11.5V13.5C5 13.7761 5.11193 14 5.25 14H5.75C5.88807 14 6 13.7761 6 13.5V11.5C6 11.2239 5.88807 11 5.75 11Z" fill="black"/>
<path d="M22.7 14H5.3C5.13431 14 5 14.1343 5 14.3V15.7C5 15.8657 5.13431 16 5.3 16H22.7C22.8657 16 23 15.8657 23 15.7V14.3C23 14.1343 22.8657 14 22.7 14Z" fill="black"/>
<path d="M21.7 15.5H11.3C11.1343 15.5 11 15.6343 11 15.8V16.7C11 16.8657 11.1343 17 11.3 17H21.7C21.8657 17 22 16.8657 22 16.7V15.8C22 15.6343 21.8657 15.5 21.7 15.5Z" fill="black"/>
<path d="M5 13H4.5C4.22386 13 4 13.2239 4 13.5V15C4 15.2761 4.22386 15.5 4.5 15.5H5C5.27614 15.5 5.5 15.2761 5.5 15V13.5C5.5 13.2239 5.27614 13 5 13Z" fill="black"/>
<path d="M16.7 13H14.3C14.1343 13 14 13.1343 14 13.3V13.9C14 14.0657 14.1343 14.2 14.3 14.2H16.7C16.8657 14.2 17 14.0657 17 13.9V13.3C17 13.1343 16.8657 13 16.7 13Z" fill="black"/>
<path d="M15 16H8V16.8H15V16Z" fill="black"/>
<path d="M14.7224 16.1927L14.509 16.1156C14.3322 16.0518 14.1488 16.1108 14.0995 16.2476L13.2352 18.6407C13.1858 18.7774 13.2891 18.94 13.4659 19.0038L13.6793 19.0809C13.8561 19.1448 14.0395 19.0857 14.0889 18.949L14.9532 16.5559C15.0025 16.4192 14.8992 16.2566 14.7224 16.1927Z" fill="black"/>
<path d="M14 18.4H8V19.2H14V18.4Z" fill="black"/>
<path d="M11.3 16H10.9C10.6791 16 10.5 16.1791 10.5 16.4V18.4C10.5 18.6209 10.6791 18.8 10.9 18.8H11.3C11.5209 18.8 11.7 18.6209 11.7 18.4V16.4C11.7 16.1791 11.5209 16 11.3 16Z" fill="black"/>
<path d="M9.68732 14.3555C9.94317 13.9209 10.4826 13.7448 10.9456 13.9448L11.8493 14.3351C12.4015 14.5736 12.6197 15.2421 12.3146 15.7605L7.20195 24.4451C6.9461 24.8798 6.40666 25.0558 5.94368 24.8559L5.03993 24.4655C4.48774 24.227 4.26953 23.5585 4.57468 23.0402L9.68732 14.3555Z" fill="black"/>
<path d="M12.3006 16.4484L12.0891 17.5133C12.0399 17.7609 12.1453 17.9905 12.3244 18.0261C12.5036 18.0617 12.6888 17.8898 12.738 17.6422L12.9495 16.5773C12.9987 16.3297 12.8933 16.1 12.7141 16.0645C12.5349 16.0289 12.3498 16.2007 12.3006 16.4484Z" fill="black"/>
</svg>
