<svg width="32" height="32" viewBox="0 0 32 32" fill="none" xmlns="http://www.w3.org/2000/svg">
<path d="M28.918 13.8304H17.918C17.3657 13.8304 16.918 14.0303 16.918 14.2768V14.7232C16.918 14.9697 17.3657 15.1696 17.918 15.1696H28.918C29.4703 15.1696 29.918 14.9697 29.918 14.7232V14.2768C29.918 14.0303 29.4703 13.8304 28.918 13.8304Z" fill="black"/>
<path d="M22.9238 13.1327H9.78361C9.17885 13.1327 8.6886 13.3076 8.6886 13.5234V15.4766C8.6886 15.6924 9.17885 15.8673 9.78361 15.8673H22.9238C23.5285 15.8673 24.0188 15.6924 24.0188 15.4766V13.5234C24.0188 13.3076 23.5285 13.1327 22.9238 13.1327Z" fill="black"/>
<path d="M8.5127 13.4898L3.97225 13.4898C3.42805 13.5839 3.04247 13.9817 3.11106 14.3783L3.35941 15.8145C3.42799 16.2111 3.92476 16.4563 4.46897 16.3622L9.39584 15.5102C9.94005 15.4161 10.3256 15.0183 10.257 14.6217L13.1576 13.1417C10.7917 12.8981 10.5096 13.8197 8.5127 13.4898Z" fill="black"/>
<path d="M2.12075 12.9452L1.60958 12.9452C1.27402 13.2537 1.51546 13.4198 1.60956 13.964L2.12075 16.9201C2.21486 17.4643 2.73232 17.8292 3.27653 17.7351L3.79298 17.4861C5.14666 16.6294 8.61649 16.0084 8.52238 15.4642L11.07 13.1939C10.9759 12.6497 4.35443 13.9895 2.12075 12.9452Z" fill="black"/>
<path d="M11.3032 15.2724L10.4219 14.7998C9.93515 14.5388 9.329 14.7218 9.068 15.2085L6.70507 19.6149C6.44407 20.1016 6.62705 20.7078 7.11377 20.9688L7.99506 21.4414C8.48178 21.7024 9.08792 21.5194 9.34893 21.0327L11.7119 16.6263C11.9729 16.1395 11.7899 15.5334 11.3032 15.2724Z" fill="black"/>
<path d="M14.5458 15.9507C14.5586 15.6749 14.3453 15.4409 14.0695 15.4281C13.7936 15.4153 13.5596 15.6286 13.5469 15.9044L13.4542 17.9023C13.4415 18.1781 13.6547 18.4121 13.9306 18.4249C14.2064 18.4377 14.4404 18.2244 14.4532 17.9486L14.5458 15.9507Z" fill="black"/>
<path d="M13.6354 18.633C13.9948 18.6364 14.2884 18.4154 14.291 18.1393C14.2936 17.8631 14.0044 17.6365 13.6449 17.6331L11.0416 17.6082C10.6822 17.6047 10.3886 17.8258 10.386 18.1019C10.3834 18.3781 10.6726 18.6047 11.0321 18.6081L13.6354 18.633Z" fill="black"/>
<path d="M12.6114 16.0115C12.6178 15.8735 12.5112 15.7563 12.3732 15.75C12.2353 15.7436 12.1183 15.8503 12.1119 15.9884L12.0655 16.9885C12.0591 17.1265 12.1658 17.2437 12.3037 17.25C12.4416 17.2564 12.5587 17.1497 12.5651 17.0116L12.6114 16.0115Z" fill="black"/>
<path d="M30.9739 13.5951H28.4423C28.1661 13.5951 27.9423 13.7272 27.9423 13.8903V15.071C27.9423 15.2341 28.1661 15.3662 28.4423 15.3662L30.9739 15.4049C31.2501 15.4049 30.0973 14.9001 30.0973 14.7371V14.5034C30.0973 14.3403 31.2501 13.5951 30.9739 13.5951Z" fill="black"/>
<path d="M15.3439 15.4049H18.3439C18.6053 15.4049 17.4253 15.4796 17.2986 15.6886C17.3743 16.4121 17.8743 19.4679 19.7615 21.0329L18.3439 21.914C18.0678 21.914 16.1382 19.1811 15.4938 16.7411L14.8439 15.834C14.8439 15.5971 15.0678 15.4049 15.3439 15.4049Z" fill="black"/>
<path d="M18.5922 10.9886C18.5922 10.9012 18.5942 10.8164 18.5952 10.7356C18.6044 10.0451 17.7767 10.0601 17.1008 10.202L16.755 10.2746C16.0791 10.4166 15.3904 10.4881 14.6998 10.4881H13.8054C13.0809 10.4881 12.3589 10.4043 11.6536 10.2383C10.9484 10.0724 10.0406 9.88409 9.70525 10.5263C9.63305 10.6645 9.59222 10.8218 9.59222 10.9886V11.4886C9.59222 11.6542 9.63249 11.8104 9.70376 11.9479C10.0379 12.5929 10.9487 12.4001 11.6536 12.225C12.3586 12.05 13.0823 11.9615 13.8087 11.9615H15.7385C16.2908 11.9615 17.9485 12.4886 18.2401 12.2684C18.4588 12.135 18.5922 11.8972 18.5922 11.641V10.9886Z" fill="black"/>
</svg>
