<svg width="32" height="32" viewBox="0 0 32 32" fill="none" xmlns="http://www.w3.org/2000/svg">
<g clip-path="url(#clip0_102_32)">
<path d="M29.7151 13.8453H11.8521C10.8656 13.8453 10.0659 14.1068 10.0659 14.4294C10.0659 14.7521 10.8656 15.0136 11.8521 15.0136H29.7151C30.7016 15.0136 30.6547 14.7613 30.6547 14.4387C30.6547 14.116 30.7016 13.8453 29.7151 13.8453Z" fill="black"/>
<path d="M30.8631 15.3724H11.3909C10.6227 15.3724 10 15.6249 10 15.9362C10 16.2476 10.6227 16.5 11.3909 16.5H30.8631C31.6312 16.5 31.6627 16.4315 31.6627 15.973C31.6627 15.5144 31.6312 15.3724 30.8631 15.3724Z" fill="black"/>
<path d="M23 14.0442H17C16.4477 14.0442 16 14.2307 16 14.4608V16.5435C16 16.7736 16.4477 16.9601 17 16.9601H23C23.5523 16.9601 24 16.7736 24 16.5435V14.4608C24 14.2307 23.5523 14.0442 23 14.0442Z" fill="black"/>
<path d="M13.1918 13.8453H8.73573C7.50522 13.8453 6.50769 14.1596 6.50769 14.5473V15.9515C6.50769 16.3393 7.50522 16.6536 8.73573 16.6536H13.1918C14.4223 16.6536 15.4199 16.3393 15.4199 15.9515V14.5473C15.4199 14.1596 14.4223 13.8453 13.1918 13.8453Z" fill="black"/>
<path d="M7.73961 16.5385C8.63582 16.0529 9.08464 15.1468 8.74208 14.5146C8.39953 13.8824 7.39532 13.7635 6.49911 14.2491L1.64568 16.3789C0.407013 16.7431 1.21553 18.1536 1.19638 18.8152C1.16901 19.7603 0.629051 21.0229 1.52525 20.5373L7.73961 16.5385Z" fill="black"/>
<path d="M8.909 15.9684L7.19495 15.677L5.2927 20.6421L7.34955 20.9917L8.909 15.9684Z" fill="black"/>
<path d="M13.6626 16.9511L13.758 13.5477C13.7646 13.3128 13.6044 13.1177 13.4001 13.112L13.0303 13.1016C12.826 13.0959 12.6551 13.2817 12.6485 13.5166L12.5531 16.92C12.5466 17.155 12.7068 17.3501 12.911 17.3558L13.2809 17.3662C13.4851 17.3719 13.6561 17.1861 13.6626 16.9511Z" fill="black"/>
<path d="M12.1759 16.9511L12.2713 13.5477C12.2779 13.3128 12.1176 13.1177 11.9134 13.112L11.5435 13.1016C11.3393 13.0959 11.1684 13.2817 11.1618 13.5166L11.0664 16.92C11.0598 17.155 11.22 17.3501 11.4243 17.3558L11.7941 17.3662C11.9984 17.3719 12.1693 17.1861 12.1759 16.9511Z" fill="black"/>
<path d="M10.7731 16.9511L10.8685 13.5477C10.8751 13.3128 10.7149 13.1177 10.5106 13.112L10.1408 13.1016C9.93651 13.0959 9.76559 13.2817 9.75901 13.5166L9.66361 16.92C9.65703 17.155 9.81727 17.3501 10.0215 17.3558L10.3914 17.3662C10.5956 17.3719 10.7665 17.1861 10.7731 16.9511Z" fill="black"/>
<path d="M15.0654 16.9822L15.1608 13.5788C15.1674 13.3439 15.0071 13.1488 14.8029 13.1431L14.4331 13.1327C14.2288 13.127 14.0579 13.3128 14.0513 13.5477L13.9559 16.9511C13.9493 17.1861 14.1096 17.3812 14.3138 17.3869L14.6837 17.3973C14.8879 17.403 15.0588 17.2172 15.0654 16.9822Z" fill="black"/>
</g>
<defs>
<clipPath id="clip0_102_32">
<rect width="32" height="32" fill="white"/>
</clipPath>
</defs>
</svg>
