<svg width="32" height="32" viewBox="0 0 32 32" fill="none" xmlns="http://www.w3.org/2000/svg">
<path d="M16.4761 13.3342L9.0744 13.1096C8.70956 13.2169 7.97989 13.507 7.97989 13.9466L6.29053 15.7223C6.29053 16.1619 6.79722 16.5183 7.42226 16.5183H16.4761C17.1012 16.5183 17.6078 16.1619 17.6078 15.7223V14.1302C17.6078 13.6906 17.1012 13.3342 16.4761 13.3342Z" fill="black"/>
<path d="M16.467 13.3342H25.6472C26.0711 13.3342 26.0342 13.7849 26.0342 14.3407V15.0118C26.0342 15.5676 26.0711 16.0183 25.6472 16.0183H18.6154C18.271 16.0183 18.2068 16.055 18.1948 15.7705L17.4505 15.8693L16.6308 14.2846C16.6308 13.7288 16.0431 13.3342 16.467 13.3342Z" fill="black"/>
<path d="M24.3749 14.4825L24.3766 14.8812C24.3776 15.1014 24.8785 15.2777 25.4954 15.275L30.4567 15.2715C31.0736 15.2688 31.0773 15.2533 31.0785 14.8516L31.0796 14.4708C31.0807 14.0724 31.0357 14.0726 30.4332 14.0753L30.4181 14.0754L25.4901 14.0788C24.8732 14.0815 24.3739 14.2623 24.3749 14.4825Z" fill="black"/>
<path d="M15.9152 15.726H18.9152C19.1766 15.726 17.9965 15.8007 17.8698 16.0097C17.9455 16.7331 18.4455 19.7889 20.3327 21.3539L18.9152 22.235C18.639 22.235 16.7094 19.5022 16.065 17.0621L15.4152 16.1551C15.4152 15.9181 15.639 15.726 15.9152 15.726Z" fill="black"/>
<path d="M15.9673 16.2183H10.9673V17.0183H15.9673V16.2183Z" fill="black"/>
<path d="M15.2905 16.5183H15.0905C14.9248 16.5183 14.7905 16.5957 14.7905 16.6911V18.074C14.7905 18.1694 14.9248 18.2468 15.0905 18.2468H15.2905C15.4562 18.2468 15.5905 18.1694 15.5905 18.074V16.6911C15.5905 16.5957 15.4562 16.5183 15.2905 16.5183Z" fill="black"/>
<path d="M14.9932 17.9639H11.0932C10.9275 17.9639 10.7932 18.0983 10.7932 18.2639V18.3639C10.7932 18.5296 10.9275 18.6639 11.0932 18.6639H14.9932C15.1589 18.6639 15.5502 18.4296 15.5502 18.2639L15.5905 18.0077V17.548C15.5905 17.3823 15.1589 17.9639 14.9932 17.9639Z" fill="black"/>
<path d="M11.6155 15.1464L13.6163 15.9353L11.1286 20.7783L9.12782 19.9894L11.6155 15.1464Z" fill="black"/>
<path d="M13.6917 15.2683H13.5512C13.396 15.2683 13.2702 15.4474 13.2702 15.6683V17.3683C13.2702 17.5892 13.396 17.7683 13.5512 17.7683H13.6917C13.847 17.7683 13.9728 17.5892 13.9728 17.3683V15.6683C13.9728 15.4474 13.847 15.2683 13.6917 15.2683Z" fill="black"/>
<path d="M9.27113 15.9882C10.2563 15.7265 13.8951 14.9744 13.7105 14.2794C14.6753 13.7599 9.12952 13.4983 8.14438 13.7599L3.38494 14.4026C2.09537 14.4659 2.55022 16.0268 2.37631 16.6653C2.12787 17.5776 1.30663 18.6782 2.29178 18.4165L9.27113 15.9882Z" fill="black"/>
</svg>
