<svg width="32" height="32" viewBox="0 0 32 32" fill="none" xmlns="http://www.w3.org/2000/svg">
<path d="M28.0885 15.3H3.0885C2.53622 15.3 2.0885 15.6071 2.0885 15.986C2.0885 16.3649 2.53622 16.672 3.0885 16.672H28.0885C28.6408 16.672 29.0885 16.3649 29.0885 15.986C29.0885 15.6071 28.6408 15.3 28.0885 15.3Z" fill="black"/>
<path d="M30.941 15.0811H28.4094C28.1332 15.0811 27.9094 15.2132 27.9094 15.3763V16.557C27.9094 16.7201 28.1332 16.8522 28.4094 16.8522L30.941 16.8909C31.2172 16.8909 30.0644 16.3861 30.0644 16.2231V15.9894C30.0644 15.8263 31.2172 15.0811 30.941 15.0811Z" fill="black"/>
<path d="M18.218 14.428H10.218C9.66573 14.428 9.21802 14.7495 9.21802 15.146V16.582C9.21802 16.9785 9.66573 17.3 10.218 17.3H18.218C18.7703 17.3 19.218 16.9785 19.218 16.582V15.146C19.218 14.7495 18.7703 14.428 18.218 14.428Z" fill="black"/>
<path d="M18.218 12.2822C18.218 12.1948 18.22 12.1101 18.221 12.0293C18.2302 11.3387 17.4024 11.3538 16.7266 11.4957L16.3808 11.5683C15.7049 11.7103 15.0162 11.7818 14.3256 11.7818H13.4312C12.7067 11.7818 11.9847 11.698 11.2794 11.532C10.5742 11.3661 9.66642 11.1778 9.33104 11.82C9.25884 11.9582 9.21802 12.1155 9.21802 12.2822V12.7822C9.21802 12.9479 9.25828 13.1041 9.32955 13.2416C9.66371 13.8866 10.5744 13.6937 11.2794 13.5187C11.9844 13.3436 12.7081 13.2551 13.4345 13.2551H15.3643C15.9165 13.2551 17.5743 13.7822 17.8659 13.5621C18.0846 13.4286 18.218 13.1909 18.218 12.9347V12.2822Z" fill="black"/>
<path d="M11.3271 16.3H9.45209L6.07709 19.7365H8.32709L11.3271 16.3Z" fill="black"/>
<path d="M15.218 17.6182C15.218 17.3421 14.9942 17.1182 14.718 17.1182C14.4419 17.1182 14.218 17.3421 14.218 17.6182V19.1182C14.218 19.3943 14.4419 19.6182 14.718 19.6182C14.9942 19.6182 15.218 19.3943 15.218 19.1182V17.6182Z" fill="black"/>
<path d="M24.0821 16.7891C24.0247 16.519 23.7592 16.3465 23.4891 16.404C23.219 16.4614 23.0465 16.7269 23.104 16.997L23.9356 20.9096C23.993 21.1797 24.2585 21.3521 24.5286 21.2947C24.7987 21.2373 24.9712 20.9718 24.9138 20.7017L24.0821 16.7891Z" fill="black"/>
<path d="M23.9137 16.997C23.9712 16.7269 23.7987 16.4614 23.5286 16.404C23.2585 16.3465 22.993 16.519 22.9356 16.7891L22.1039 20.7017C22.0465 20.9718 22.219 21.2373 22.4891 21.2947C22.7592 21.3521 23.0247 21.1797 23.0821 20.9096L23.9137 16.997Z" fill="black"/>
<path d="M8.93238 16.753C9.91753 16.4913 13.5563 15.7391 13.3717 15.0442C14.3365 14.5247 8.79078 14.263 7.80563 14.5247L3.04619 15.1673C1.75663 15.2307 2.21148 16.7915 2.03757 17.4301C1.78913 18.3424 0.967885 19.4429 1.95303 19.1813L8.93238 16.753Z" fill="black"/>
</svg>
